<?xml version="1.0" standalone="no"?>
<!DOCTYPE svg PUBLIC "-//W3C//DTD SVG 20010904//EN"
 "http://www.w3.org/TR/2001/REC-SVG-20010904/DTD/svg10.dtd">
<svg version="1.0" xmlns="http://www.w3.org/2000/svg"
 width="393.000000pt" height="393.000000pt" viewBox="0 0 393.000000 393.000000"
 preserveAspectRatio="xMidYMid meet">
<metadata>
Created by potrace 1.11, written by Peter Selinger 2001-2013
</metadata>
<g transform="translate(0.000000,393.000000) scale(0.100000,-0.100000)"
fill="#000000" stroke="none">
<path d="M1825 3898 c-62 -23 -285 -172 -472 -317 -355 -274 -703 -624 -968
-971 -27 -36 -53 -69 -58 -75 -51 -63 -203 -289 -278 -415 -34 -57 -44 -84
-43 -117 0 -74 44 -103 174 -118 30 -3 66 -8 80 -10 14 -2 56 -7 94 -10 73 -7
103 -19 111 -46 3 -9 8 -151 11 -315 2 -164 6 -319 8 -344 2 -25 6 -101 10
-168 4 -68 9 -131 11 -140 1 -10 6 -62 10 -117 4 -55 8 -113 10 -130 2 -16 6
-57 10 -90 21 -215 35 -305 52 -338 19 -39 58 -52 139 -50 515 12 498 10 489
63 -2 14 -7 63 -10 110 -4 47 -8 101 -10 120 -2 19 -6 96 -10 170 -6 149 -13
227 -20 250 -3 8 -28 30 -55 49 -56 38 -111 114 -143 199 -20 53 -21 76 -21
317 -1 223 7 543 19 775 1 36 4 108 5 160 2 92 11 127 34 142 20 14 56 8 76
-12 17 -17 19 -30 15 -122 -24 -503 -29 -775 -16 -807 30 -70 142 -72 171 -2
6 16 13 126 16 266 2 132 6 265 9 295 2 30 7 98 10 150 3 52 8 119 10 148 5
83 49 114 103 76 22 -15 22 -19 16 -132 -20 -362 -27 -762 -15 -795 11 -28 65
-68 85 -62 6 2 23 6 38 9 50 11 62 52 64 226 1 142 9 323 19 490 2 36 7 105
10 154 6 99 20 126 65 126 14 0 34 -6 44 -13 21 -15 21 -20 12 -297 -15 -460
-18 -547 -20 -775 -2 -133 -6 -251 -10 -262 -4 -12 -8 -30 -10 -40 -13 -65
-88 -176 -145 -214 -20 -13 -40 -28 -44 -34 -9 -12 0 -237 18 -455 2 -25 7
-82 10 -128 9 -104 9 -110 18 -119 13 -12 806 -11 823 2 9 6 17 26 19 45 9 81
14 139 20 210 3 41 8 93 10 115 2 22 7 88 10 146 8 121 15 112 -95 124 -165
19 -212 38 -232 92 -15 42 -19 398 -6 513 35 303 121 584 267 865 126 243 220
365 283 365 66 0 105 -46 114 -138 3 -26 7 -56 9 -67 26 -127 26 -1107 0
-1465 -2 -30 -7 -107 -10 -170 -4 -63 -8 -131 -10 -150 -2 -19 -6 -82 -10
-140 -4 -58 -8 -118 -10 -135 -2 -16 -7 -74 -11 -127 -5 -80 -4 -98 7 -99 13
-1 112 -4 315 -9 108 -3 134 13 162 100 13 39 37 199 47 305 3 39 8 93 11 120
2 28 6 84 9 125 13 218 16 273 20 355 2 50 7 180 10 290 6 191 12 350 14 387
2 27 40 46 106 53 33 3 71 8 85 10 14 2 57 7 95 10 147 14 180 34 178 114 -1
34 -10 63 -32 99 -63 107 -285 430 -357 519 -57 70 -120 179 -133 228 -5 22
-12 67 -15 100 -2 33 -9 96 -15 140 -53 399 -83 581 -99 610 -25 42 -73 62
-172 70 -47 4 -98 9 -115 11 -16 1 -65 4 -107 5 -69 3 -80 0 -102 -20 -31 -29
-38 -61 -41 -178 -1 -51 -4 -95 -7 -99 -10 -9 -41 4 -68 29 -83 76 -417 311
-516 363 -69 36 -121 42 -179 22z"/>
</g>
</svg>
